<?xml version="1.0" standalone="no"?>
<!DOCTYPE svg PUBLIC "-//W3C//DTD SVG 20010904//EN"
 "http://www.w3.org/TR/2001/REC-SVG-20010904/DTD/svg10.dtd">
<svg version="1.0" xmlns="http://www.w3.org/2000/svg"
 width="500.000000pt" height="500.000000pt" viewBox="0 0 500.000000 500.000000"
 preserveAspectRatio="xMidYMid meet">
<metadata>
Created by potrace 1.11, written by Peter Selinger 2001-2013
</metadata>
<g transform="translate(0.000000,500.000000) scale(0.100000,-0.100000)"
fill="#000000" stroke="none">
<path d="M1670 4978 c0 -13 -14 -34 -32 -50 -25 -21 -29 -28 -15 -28 21 0 22
-13 1 -30 -13 -11 -16 -10 -21 9 -4 17 -8 19 -14 9 -7 -10 -9 -10 -9 0 0 6 -4
12 -10 12 -5 0 -10 -15 -10 -34 0 -19 5 -38 10 -41 15 -9 12 -42 -5 -49 -24
-9 -19 -87 9 -148 14 -29 27 -61 30 -70 3 -10 16 -18 28 -19 13 0 17 -3 11 -6
-7 -2 -13 -11 -13 -19 0 -9 -5 -12 -10 -9 -6 4 -7 12 -4 18 5 9 4 9 -6 0 -7
-7 -9 -17 -4 -26 18 -31 127 -147 138 -146 25 3 36 -2 36 -15 0 -21 -21 -31
-31 -15 -7 11 -9 11 -9 -3 0 -14 36 -35 50 -29 2 1 7 -6 11 -16 7 -16 8 -16 8
3 1 11 -5 26 -11 32 -10 10 -10 17 0 32 6 11 12 32 11 47 0 25 -1 26 -9 8 -7
-16 -9 -17 -9 -3 -1 9 3 19 7 22 4 2 6 22 4 43 -3 29 -8 39 -22 39 -10 0 -16
-6 -13 -12 3 -8 -2 -11 -16 -7 -16 4 -20 11 -15 27 7 24 68 82 102 96 19 8 22
17 22 60 0 28 -7 65 -16 82 -9 16 -11 27 -5 24 7 -5 11 6 11 29 0 20 -4 34 -8
31 -5 -3 -19 14 -31 37 -32 62 -45 81 -58 90 -7 4 -13 17 -13 27 0 16 -7 20
-35 20 -29 0 -35 -3 -35 -22z m105 -88 c3 -5 -1 -10 -9 -10 -9 0 -16 5 -16 10
0 6 4 10 9 10 6 0 13 -4 16 -10z m-108 -405 c0 -8 -9 -15 -19 -15 -20 0 -24
16 -5 23 20 9 24 8 24 -8z m100 -33 c10 -16 8 -19 -17 -19 -25 0 -27 3 -17 19
7 10 14 18 17 18 3 0 10 -8 17 -18z m-12 -52 c11 -17 -5 -31 -19 -17 -14 12
-12 27 4 27 5 0 12 -4 15 -10z"/>
<path d="M4895 4969 c-34 -33 -30 -40 5 -9 13 11 26 18 29 15 5 -6 0 -11 -39
-35 -12 -8 -13 -11 -1 -19 8 -5 9 -11 3 -15 -6 -3 -9 -14 -7 -24 1 -9 -2 -23
-8 -30 -7 -9 -5 -16 7 -25 14 -11 14 -12 -8 -12 -13 0 -21 4 -18 10 3 6 -2 4
-11 -4 -18 -14 -23 -51 -7 -51 5 0 7 8 3 18 -3 9 -3 14 2 10 4 -4 8 -18 9 -30
1 -15 7 -23 18 -22 10 1 16 -3 15 -8 -1 -6 7 -12 17 -14 25 -4 33 -17 30 -53
-1 -22 2 -28 12 -24 11 4 14 -1 10 -20 -4 -24 8 -37 34 -37 5 0 9 92 10 205 0
176 -2 205 -14 205 -10 0 -13 -6 -10 -17 5 -15 4 -15 -4 -4 -17 24 -46 21 -77
-10z m22 -51 c-3 -8 -6 -5 -6 6 -1 11 2 17 5 13 3 -3 4 -12 1 -19z m3 -56 c0
-7 -4 -10 -10 -7 -5 3 -10 16 -10 28 0 18 2 19 10 7 5 -8 10 -21 10 -28z m56
-163 c1 -13 2 -27 3 -31 2 -15 1 -18 -6 -18 -5 0 -9 5 -9 10 -4 31 -6 33 -15
15 l-9 -20 3 20 c2 11 9 19 15 18 15 -4 16 23 2 30 -6 3 -5 4 2 3 7 -2 13 -14
14 -27z"/>
<path d="M4856 4962 c-3 -5 -3 -32 -1 -61 3 -36 1 -50 -7 -45 -7 5 -8 3 -3 -5
5 -9 10 -10 18 -2 12 12 18 61 7 61 -4 0 -6 14 -5 30 2 31 0 36 -9 22z"/>
<path d="M4880 4701 c0 -5 6 -14 14 -20 12 -10 13 -8 9 8 -5 21 -23 30 -23 12z"/>
<path d="M4970 4541 c0 -6 5 -13 12 -17 6 -4 8 -3 4 4 -3 5 0 13 6 15 8 3 6 6
-4 6 -10 1 -18 -3 -18 -8z"/>
<path d="M1640 4420 c0 -5 5 -10 10 -10 6 0 10 5 10 10 0 6 -4 10 -10 10 -5 0
-10 -4 -10 -10z"/>
<path d="M1612 4400 c0 -14 2 -19 5 -12 2 6 2 18 0 25 -3 6 -5 1 -5 -13z"/>
<path d="M1640 4355 c0 -8 5 -15 10 -15 6 0 10 7 10 15 0 8 -4 15 -10 15 -5 0
-10 -7 -10 -15z"/>
<path d="M1602 4340 c0 -14 2 -19 5 -12 2 6 2 18 0 25 -3 6 -5 1 -5 -13z"/>
<path d="M1681 4304 c0 -11 3 -14 6 -6 3 7 2 16 -1 19 -3 4 -6 -2 -5 -13z"/>
<path d="M1730 4254 c0 -8 5 -12 10 -9 6 3 10 10 10 16 0 5 -4 9 -10 9 -5 0
-10 -7 -10 -16z"/>
<path d="M1782 4214 c-7 -8 -26 -14 -42 -14 -17 0 -30 -4 -30 -9 0 -5 -15 -15
-34 -21 -44 -14 -84 -54 -106 -106 -20 -46 -35 -59 -65 -59 -16 0 -25 -15 -44
-73 -19 -56 -27 -71 -40 -67 -40 12 -48 -15 -43 -160 2 -74 4 -78 75 -142 19
-18 26 -37 31 -85 4 -35 12 -87 18 -116 10 -47 9 -57 -7 -84 -22 -38 -16 -108
16 -170 23 -46 23 -30 4 -343 -4 -73 -3 -85 6 -65 7 14 11 61 10 107 -1 47 2
84 8 87 6 4 8 25 5 49 -3 23 -1 56 5 72 l9 30 2 -35 c1 -26 3 -30 9 -16 6 15
10 12 25 -21 19 -44 19 -120 -1 -127 -9 -4 -6 -15 12 -42 14 -20 25 -45 25
-54 0 -10 7 -21 16 -24 12 -5 14 -15 10 -43 -3 -21 -6 -47 -7 -58 -1 -11 -5 5
-9 35 l-7 55 -1 -58 c-2 -43 -5 -56 -14 -51 -10 6 -10 4 0 -7 18 -20 15 -53
-8 -69 -11 -8 -20 -19 -20 -24 0 -5 8 -1 19 8 18 16 18 15 16 -26 -2 -24 -3
-45 -4 -47 -1 -2 -10 8 -22 23 -11 14 -27 26 -36 26 -8 0 -13 6 -11 12 5 13
-14 38 -29 38 -4 0 -10 -26 -11 -57 -2 -32 -6 -60 -8 -63 -3 -2 -4 25 -2 60 3
63 4 65 31 68 29 4 32 9 17 32 -8 13 -10 12 -10 -2 0 -10 -4 -18 -10 -18 -11
0 -18 26 -23 80 -2 22 -6 4 -11 -45 -10 -108 -10 -108 -48 -100 -39 9 -127 65
-127 83 -1 7 -11 17 -23 22 -13 5 -19 9 -14 9 6 1 0 10 -13 22 -12 12 -20 26
-18 33 6 15 -30 19 -39 4 -5 -7 -2 -8 6 -3 9 5 11 4 6 -3 -4 -7 -2 -12 3 -12
6 0 11 -5 11 -12 0 -6 -7 -4 -18 5 -10 10 -22 14 -27 10 -4 -5 -5 0 -2 9 3 9
1 19 -6 22 -7 2 -4 5 6 5 9 1 17 5 17 11 0 5 -7 7 -15 3 -9 -3 -15 -2 -14 3 4
23 -3 34 -21 34 -11 0 -20 4 -20 9 0 4 -12 6 -26 3 -18 -3 -25 -1 -20 6 3 6 0
13 -6 16 -11 5 -11 7 0 12 19 9 5 23 -18 17 -11 -3 -18 -8 -16 -12 3 -4 -6 -7
-19 -7 -13 0 -23 2 -23 6 2 20 -4 30 -19 30 -15 0 -16 -2 -3 -10 10 -7 11 -10
2 -10 -7 0 -15 8 -18 18 -10 31 -21 47 -35 48 -8 1 -20 2 -26 3 -7 0 -13 5
-13 11 0 5 3 9 8 9 19 -3 29 2 29 16 0 8 -4 15 -9 15 -4 0 -8 -5 -8 -11 0 -7
-9 -9 -22 -6 -12 4 -28 1 -35 -5 -11 -9 -12 -6 -4 13 7 19 4 30 -9 47 -18 21
-39 14 -25 -8 3 -5 1 -10 -4 -10 -6 0 -11 6 -12 13 -1 24 -8 49 -14 55 -4 4
-5 -2 -3 -13 2 -12 -3 -21 -15 -23 -10 -2 -17 0 -16 5 5 29 -3 35 -16 13 -8
-14 -14 -19 -15 -12 0 7 -4 10 -10 7 -44 -27 -152 -26 -212 4 -167 81 -200
294 -66 423 l48 46 -21 79 c-12 43 -28 91 -36 107 -8 15 -10 25 -4 22 7 -5 11
2 10 16 0 13 -3 18 -5 11 -3 -7 -12 -9 -20 -6 -10 4 -12 0 -8 -11 3 -9 1 -16
-5 -16 -6 0 -10 6 -8 13 1 6 -4 11 -12 9 -12 -3 -12 0 -1 13 7 8 10 18 6 22
-3 3 -6 2 -6 -4 0 -5 -7 -10 -15 -10 -8 0 -15 4 -15 9 0 4 4 8 9 8 5 0 11 11
13 24 5 24 -12 30 -29 11 -4 -4 -2 -5 5 -1 14 8 17 -10 2 -19 -5 -3 -10 -1
-10 4 0 14 -77 14 -85 1 -4 -6 -11 -8 -16 -5 -5 4 -9 2 -9 -3 0 -16 -105 -62
-168 -74 l-62 -12 0 -408 0 -408 39 0 c45 0 136 -62 127 -87 -3 -7 -2 -11 4
-8 11 7 33 -32 26 -48 -3 -9 -5 -9 -5 0 -1 19 -49 62 -76 69 -14 3 -22 10 -19
15 3 5 -4 9 -15 9 -12 0 -21 4 -21 8 0 5 -6 9 -12 9 -7 0 -21 4 -31 8 -16 7
-17 -7 -17 -213 l0 -221 37 6 c21 3 42 12 46 20 4 7 14 13 22 13 7 0 17 9 20
20 3 11 13 20 20 20 8 0 17 11 21 25 3 13 14 27 24 30 10 3 21 14 23 23 4 15
5 15 6 -1 0 -10 -5 -20 -13 -23 -8 -3 -12 -13 -9 -22 7 -28 -51 -97 -102 -122
-38 -18 -51 -20 -71 -11 l-24 11 0 -138 0 -138 35 -14 c19 -8 35 -16 35 -19 0
-3 -15 -13 -33 -22 l-32 -16 -3 -1006 -2 -1007 849 0 c737 0 850 2 861 15 8
10 9 15 2 15 -6 0 -14 -4 -17 -10 -3 -5 -23 -9 -43 -9 -30 2 -32 3 -9 6 15 2
27 9 27 14 0 6 -5 7 -10 4 -6 -3 -10 -1 -10 4 0 6 7 11 15 11 9 0 18 6 21 13
6 16 34 19 34 4 0 -6 9 -2 20 8 11 10 20 31 20 46 0 15 6 30 13 32 9 4 9 6 0
6 -21 2 -15 49 9 71 27 25 38 25 38 0 0 -11 7 -20 15 -20 8 0 15 -7 15 -15 0
-9 7 -29 15 -45 11 -21 20 -27 32 -23 11 4 14 3 9 -5 -4 -6 2 -17 12 -23 18
-11 20 -49 2 -49 -4 0 -5 -11 -2 -25 l4 -25 123 0 c89 0 125 3 128 13 4 9 6 9
6 0 1 -10 171 -13 819 -12 449 0 811 3 805 6 -7 2 -13 14 -13 24 0 11 -5 17
-10 14 -6 -4 -7 -12 -3 -18 3 -7 -2 -4 -13 5 -20 17 -30 58 -15 58 5 0 14 -6
20 -14 7 -8 32 -24 57 -35 24 -12 44 -23 44 -26 0 -3 -9 -1 -19 5 -26 13 -31
13 -31 -5 0 -12 82 -14 590 -15 l590 0 0 514 c0 504 -1 514 -20 519 -21 5 -28
27 -9 27 5 0 8 4 5 9 -3 5 1 11 9 15 11 4 15 21 15 61 0 48 -3 56 -17 54 -10
-1 -25 -1 -33 0 -13 1 -13 2 0 11 12 8 12 10 1 10 -10 0 -12 9 -8 38 5 25 3
32 -3 22 -8 -13 -10 -12 -10 3 0 11 -4 15 -12 11 -7 -4 -8 -3 -4 4 4 7 16 12
26 12 10 0 21 6 24 13 3 6 5 0 3 -15 -3 -21 0 -26 15 -25 13 1 17 8 16 29 -2
29 -10 30 -61 9 -31 -12 -47 -8 -47 15 0 8 -4 14 -9 14 -5 0 -11 10 -15 23 -3
13 -17 29 -31 35 -29 14 -56 16 -54 5 3 -21 -3 -24 -18 -12 -14 12 -16 12 -9
-1 7 -13 6 -13 -6 0 -7 8 -19 16 -27 18 -12 3 -12 0 -1 -13 11 -13 10 -15 -4
-9 -9 3 -16 2 -16 -4 0 -6 6 -13 13 -15 9 -4 9 -6 0 -6 -6 -1 -14 3 -17 8 -8
13 -66 -10 -66 -26 0 -6 8 -17 18 -22 16 -10 15 -11 -3 -12 -11 -1 -28 -1 -37
0 -12 2 -15 -4 -11 -19 4 -16 1 -20 -17 -20 -22 0 -22 0 -3 -17 10 -10 13 -14
6 -9 -7 4 -22 6 -33 3 -11 -3 -20 0 -21 6 0 7 -4 2 -10 -11 -5 -13 -14 -20
-19 -17 -8 5 -7 11 1 21 6 8 9 17 5 21 -3 3 -6 0 -6 -7 0 -11 -3 -11 -12 -2
-10 10 -10 15 2 23 12 8 10 9 -7 4 -14 -4 -23 -2 -23 4 0 6 -5 11 -11 11 -8 0
-7 -6 2 -17 11 -13 11 -17 2 -20 -10 -4 -10 -10 -2 -25 7 -13 7 -18 1 -14 -6
3 -13 2 -16 -3 -4 -5 -2 -13 4 -16 6 -4 8 -15 5 -26 -4 -12 -2 -19 7 -19 8 0
9 -3 3 -8 -18 -13 -15 -30 5 -35 11 -3 20 -1 20 4 0 5 4 9 9 9 6 0 8 -10 6
-21 -3 -12 -2 -19 2 -15 3 3 13 0 22 -7 14 -11 14 -10 2 6 -9 11 -10 17 -2 17
13 0 10 21 -4 33 -6 5 -4 7 5 4 10 -2 15 -17 15 -44 0 -36 2 -40 18 -32 20 12
37 4 37 -17 0 -8 6 -14 13 -14 9 0 8 -3 -2 -9 -11 -7 -11 -9 0 -14 12 -4 11
-7 -1 -16 -13 -9 -12 -11 3 -11 10 0 15 -4 12 -10 -3 -5 3 -10 13 -10 22 0 37
26 22 35 -6 4 -10 12 -10 18 0 7 8 -1 18 -16 13 -21 22 -27 40 -22 17 4 22 1
22 -15 0 -11 -7 -23 -15 -26 -8 -4 -15 -12 -15 -20 0 -8 -7 -15 -15 -15 -17
-2 -34 -5 -37 -9 -2 -1 -12 -3 -23 -5 -11 -2 -21 -9 -23 -14 -2 -6 -12 -11
-22 -11 -11 0 -24 -12 -32 -31 -14 -32 -10 -31 -91 -14 -25 6 -38 15 -32 25 3
4 -2 11 -11 14 -8 3 -12 2 -9 -4 8 -13 -8 -13 -22 1 -8 8 -17 8 -31 0 -10 -6
-22 -7 -26 -4 -3 3 -6 1 -6 -6 0 -7 -6 -11 -13 -8 -8 3 -20 1 -28 -4 -12 -8
-12 -10 1 -19 11 -7 6 -8 -18 -5 -18 2 -30 0 -27 -6 4 -5 -3 -9 -13 -9 -25 0
-37 -27 -14 -33 15 -4 15 -5 1 -6 -13 -1 -7 -28 36 -159 29 -87 56 -172 60
-190 6 -31 6 -32 -18 -23 -14 5 -28 7 -33 3 -4 -4 -4 1 -1 10 5 15 3 16 -19 6
-20 -9 -27 -9 -34 1 -4 8 -12 11 -18 7 -5 -3 -12 1 -15 9 -4 10 -19 13 -51 11
-25 -1 -47 2 -49 7 -2 6 -15 10 -29 11 -14 1 -33 8 -42 15 -9 7 -25 11 -35 8
-12 -3 -22 1 -25 10 -4 10 -14 13 -27 10 -16 -4 -18 -3 -8 9 6 7 16 11 23 7 6
-3 3 3 -7 14 -17 20 -17 21 5 27 34 9 45 7 28 -4 -14 -9 14 -14 83 -13 9 0 17
-6 17 -14 0 -7 5 -13 11 -13 5 0 7 5 3 12 -5 8 -2 9 9 5 11 -4 17 -1 17 9 0 8
4 13 9 9 5 -3 12 -1 16 5 7 12 25 4 25 -11 0 -5 -6 -9 -14 -9 -8 0 -17 -3 -20
-8 -2 -4 15 -7 40 -7 24 0 44 3 44 7 0 4 7 5 15 2 8 -4 12 -10 9 -15 -3 -5 0
-9 7 -9 8 0 7 -5 -2 -17 -12 -15 -12 -16 1 -8 8 5 24 8 34 6 14 -2 17 2 12 14
-3 9 -6 19 -6 22 0 3 -7 0 -15 -7 -13 -10 -15 -9 -15 10 0 16 -4 20 -15 16 -9
-3 -15 0 -15 9 0 7 -16 19 -35 25 -19 6 -35 16 -35 21 0 12 -29 43 -42 45 -4
1 -13 2 -19 3 -6 0 -9 8 -5 16 3 9 0 15 -9 15 -14 0 -19 12 -16 33 0 4 -6 7
-14 7 -9 0 -18 6 -21 14 -3 8 -16 17 -30 20 -13 4 -24 13 -24 22 0 8 -4 13 -9
9 -6 -3 -15 4 -21 15 -8 14 -17 19 -28 15 -9 -3 -13 -3 -10 1 4 4 3 16 -3 27
-7 13 -7 17 -1 13 6 -3 13 -2 17 4 3 5 1 10 -5 10 -6 0 -8 4 -5 10 3 5 0 8 -7
5 -18 -6 -66 38 -74 68 -3 14 -13 28 -21 31 -8 4 -13 13 -9 21 3 8 0 14 -7 12
-7 -1 -11 5 -11 14 1 11 -5 15 -17 12 -15 -4 -18 -1 -13 11 3 9 2 16 -3 16 -5
0 -17 14 -26 30 -10 17 -16 30 -13 30 3 0 -17 21 -45 47 -28 26 -48 52 -45 60
3 7 -1 13 -9 13 -8 0 -15 5 -15 10 0 6 -3 9 -7 9 -21 -3 -32 2 -27 15 3 7 -2
16 -11 20 -10 3 -15 12 -12 19 3 7 -5 23 -18 35 -12 12 -22 33 -22 47 0 25 -9
43 -17 34 -2 -2 -7 -21 -10 -43 -4 -21 -9 -42 -12 -47 -3 -5 1 -9 8 -10 7 0 4
-4 -7 -9 -11 -5 -15 -9 -8 -9 6 -1 10 -9 9 -18 -2 -10 2 -22 8 -26 7 -5 3 -7
-9 -4 -11 2 -19 9 -17 16 1 7 -2 19 -8 25 -5 7 -7 16 -3 20 4 4 0 4 -10 0 -10
-4 -17 -1 -17 6 0 7 -9 2 -21 -11 -11 -13 -17 -17 -13 -9 5 12 4 12 -5 4 -10
-9 -10 -17 -2 -32 7 -14 8 -23 1 -27 -7 -4 -7 -13 0 -26 6 -11 8 -24 5 -29 -3
-6 -1 -10 5 -10 7 0 8 -5 3 -12 -4 -7 -8 -17 -8 -22 0 -9 -45 -40 -75 -52 -8
-3 -39 -16 -67 -30 -45 -20 -53 -21 -53 -8 0 9 6 14 13 11 7 -3 13 3 13 13 0
10 -4 16 -9 13 -4 -2 -15 1 -23 8 -13 11 -15 7 -11 -29 3 -30 0 -42 -9 -42 -8
0 -11 6 -7 17 5 13 2 15 -15 11 -12 -4 -20 -2 -16 3 3 5 -2 9 -10 9 -9 0 -16
4 -16 10 0 5 6 7 13 4 17 -6 41 21 34 38 -4 8 -6 7 -6 -4 -1 -20 -16 -24 -27
-6 -4 7 -3 8 4 4 7 -4 12 -2 12 5 0 7 -9 9 -22 5 -13 -3 -31 -6 -42 -6 -16 0
-17 -2 -5 -17 12 -15 12 -16 -4 -10 -10 4 -21 7 -23 7 -2 0 -4 9 -4 19 0 23
16 37 23 19 2 -7 7 -10 11 -7 13 12 -5 37 -25 32 -13 -4 -19 0 -19 11 0 9 5
16 10 16 6 0 10 -4 10 -9 0 -13 40 -5 54 10 8 9 8 10 -1 5 -8 -4 -13 -2 -13 6
0 10 -3 9 -11 -2 -9 -12 -10 -11 -6 8 3 12 1 22 -4 22 -5 0 -9 -7 -9 -15 0
-17 -35 -20 -45 -4 -11 17 3 23 20 9 13 -11 14 -10 9 4 -3 9 -17 16 -29 16
-13 0 -27 4 -30 10 -9 15 -25 12 -25 -5 0 -9 -6 -18 -14 -21 -22 -8 -7 -49 25
-68 16 -9 34 -14 39 -11 6 3 10 2 10 -3 0 -6 -7 -12 -15 -16 -8 -3 -15 -1 -15
5 0 6 -7 3 -16 -5 -8 -9 -22 -16 -30 -16 -17 0 -19 26 -2 36 6 4 8 3 4 -4 -3
-6 -2 -13 3 -16 13 -8 22 7 13 21 -4 6 -18 14 -31 18 -16 5 -21 4 -17 -4 4 -6
1 -20 -7 -32 -8 -11 -13 -29 -10 -40 3 -10 0 -19 -6 -19 -6 0 -11 -7 -11 -15
0 -7 -8 -19 -17 -24 -17 -10 -17 -10 0 -11 9 0 17 -4 17 -10 0 -15 -21 -12
-40 5 -16 14 -18 14 -23 0 -4 -8 -2 -15 4 -15 5 0 -2 -12 -16 -27 -14 -15 -25
-31 -25 -35 0 -5 -5 -8 -10 -8 -6 0 0 19 12 43 12 23 21 48 20 55 -2 6 2 12 9
12 6 0 9 7 5 15 -3 8 2 19 12 24 9 6 14 11 9 11 -4 0 0 14 9 31 9 17 14 43 11
58 -5 25 -5 25 10 6 15 -20 15 -19 8 3 -4 13 -2 22 4 22 6 0 11 5 11 11 0 6
-7 8 -17 5 -14 -6 -13 -2 4 16 25 27 41 78 24 78 -6 0 -8 -7 -4 -17 4 -11 3
-14 -5 -9 -7 4 -12 2 -12 -4 0 -7 -7 -5 -16 5 -9 8 -14 21 -11 29 3 7 -1 13
-8 13 -9 0 -12 -10 -10 -28 2 -20 0 -26 -10 -23 -7 3 -16 1 -20 -5 -8 -14 -35
-14 -35 -1 0 6 7 13 15 15 51 16 50 16 35 25 -20 13 -33 12 -25 0 3 -5 1 -10
-5 -10 -7 0 -10 6 -7 13 2 6 12 11 21 11 9 -1 16 2 16 6 0 5 8 11 18 13 10 3
5 5 -12 6 -20 1 -27 5 -23 15 8 22 18 93 10 76 -12 -28 -54 -145 -57 -157 -1
-7 -5 -16 -9 -19 -4 -4 -7 -16 -7 -26 0 -10 -7 -21 -15 -24 -8 -4 -15 -14 -16
-23 0 -11 -3 -10 -11 7 -8 16 -17 21 -30 16 -19 -6 -19 -5 -3 26 13 26 19 29
31 19 8 -6 17 -9 20 -6 10 9 -57 46 -73 40 -10 -4 -11 -9 -2 -19 9 -11 8 -14
-5 -14 -10 0 -14 -5 -11 -10 4 -6 11 -7 17 -4 7 4 8 2 4 -5 -4 -6 -12 -9 -17
-6 -20 13 -46 13 -46 -1 0 -9 4 -11 12 -4 7 5 15 7 18 3 14 -13 6 -19 -22 -19
-28 0 -29 2 -24 29 4 21 3 28 -5 23 -7 -4 -12 -2 -12 4 0 7 -7 10 -15 7 -8 -4
-17 -2 -20 4 -4 5 1 12 10 15 13 6 14 8 3 15 -11 7 -10 11 2 19 8 5 10 10 4
10 -15 0 -10 60 5 70 11 6 11 9 0 14 -9 4 -10 8 -3 11 5 3 9 20 7 38 -1 17 2
56 7 86 6 30 8 57 5 59 -8 8 -13 -1 -18 -38 -3 -19 -24 -123 -47 -230 -49
-232 -45 -213 -55 -273 -4 -28 -14 -51 -22 -54 -10 -4 -11 -8 -3 -13 8 -5 8
-14 0 -36 -7 -16 -18 -75 -25 -131 -12 -85 -35 -163 -49 -163 -2 0 -21 7 -42
15 -35 14 -37 14 -20 0 11 -8 26 -15 33 -15 7 0 13 -4 13 -8 0 -5 -16 -8 -35
-7 -38 3 -51 -16 -46 -67 2 -22 -2 -28 -18 -28 -12 0 -31 10 -42 21 -17 17
-23 19 -30 8 -5 -8 -9 -18 -9 -23 0 -14 74 -91 84 -88 5 2 4 -4 -4 -13 -11
-14 -14 -14 -26 2 -18 24 -18 2 1 -33 8 -16 12 -37 9 -46 -4 -14 0 -17 20 -16
24 2 38 18 16 18 -5 0 -10 10 -9 23 0 21 1 21 9 2 7 -16 9 -12 8 17 -1 20 4
44 12 53 15 18 60 39 67 31 9 -9 -10 -56 -23 -56 -17 0 -18 -17 -1 -23 7 -3 4
-6 -7 -6 -13 -1 -16 -6 -11 -18 17 -44 17 -80 1 -86 -12 -5 -20 0 -26 16 -6
15 -9 17 -9 6 -1 -19 23 -42 32 -32 4 3 7 -1 7 -11 0 -14 -4 -15 -20 -6 -24
13 -26 4 -3 -18 16 -16 14 -17 -32 -20 -26 -2 -70 4 -96 12 -57 19 -59 19 -59
5 0 -6 7 -9 15 -5 8 3 15 1 15 -5 0 -6 5 -7 10 -4 6 3 10 1 10 -5 0 -6 4 -9 9
-6 5 3 14 -1 21 -9 7 -8 16 -12 21 -9 5 3 8 0 7 -7 -2 -9 10 -12 42 -11 l45 2
-39 -20 c-21 -10 -41 -18 -45 -17 -14 4 -71 -27 -71 -39 0 -8 -5 -13 -11 -11
-7 1 -15 -10 -19 -25 -9 -31 -40 -78 -40 -61 0 7 -7 10 -15 7 -8 -4 -15 -2
-15 4 0 6 5 12 11 14 5 2 7 11 4 19 -4 11 -16 15 -36 13 -16 -2 -29 1 -29 6 0
6 5 10 10 10 6 0 10 5 10 12 0 6 -10 2 -23 -10 -22 -21 -23 -21 -23 -2 0 11 4
20 8 20 4 0 8 7 8 15 0 9 6 12 15 9 8 -4 15 -1 15 5 0 6 9 11 20 11 11 0 29 9
40 20 25 25 43 17 35 -13 -4 -15 -3 -18 3 -9 5 8 12 13 16 13 27 -4 36 2 36
21 0 21 0 21 -16 2 -8 -10 -12 -13 -9 -6 4 7 -3 21 -16 33 -23 20 -49 25 -49
10 0 -6 -12 -6 -32 0 -33 9 -95 13 -87 5 2 -2 21 -7 43 -10 44 -7 81 -24 56
-27 -8 -1 -18 -1 -22 0 -5 0 -8 -3 -8 -8 0 -14 -84 12 -114 36 -15 12 -25 27
-21 33 4 6 1 18 -7 27 -9 12 -9 15 0 9 6 -4 12 -3 12 3 0 17 -22 24 -31 10 -6
-10 -9 -3 -9 21 l-1 35 -25 -29 c-21 -23 -23 -31 -12 -44 10 -12 10 -14 1 -8
-10 5 -13 -3 -13 -29 0 -21 -4 -34 -10 -30 -17 10 -4 102 19 130 11 15 18 32
14 38 -3 5 -15 -8 -25 -30 -12 -25 -25 -40 -35 -39 -17 3 -42 54 -36 74 3 6
-2 12 -10 12 -10 0 -13 8 -9 25 2 14 0 25 -7 25 -5 0 -8 -7 -5 -15 5 -11 2
-13 -10 -9 -9 3 -13 10 -10 15 3 5 -2 9 -10 9 -9 0 -16 -7 -16 -16 0 -8 -4
-12 -10 -9 -5 3 -10 -3 -10 -13 0 -26 -31 -19 -49 10 -11 17 -10 23 3 36 13
13 16 14 16 2 0 -10 4 -8 13 5 8 10 19 15 25 11 8 -5 12 5 12 31 1 36 2 37 15
19 8 -11 15 -29 16 -40 0 -12 3 -16 5 -9 3 7 12 9 20 6 10 -4 14 4 14 30 0 20
5 39 11 42 6 4 8 13 5 21 -5 13 11 19 43 14 26 -3 72 23 86 49 13 25 13 24 10
-24 -2 -28 2 -57 8 -65 10 -13 10 -13 -5 -1 -16 12 -18 11 -18 -3 0 -9 -4 -16
-10 -16 -5 0 -7 -8 -4 -18 5 -14 4 -15 -5 -2 -6 9 -6 19 -1 24 4 4 6 15 3 24
-4 10 -2 13 5 8 7 -4 12 -3 12 3 0 5 3 18 7 28 4 11 -2 8 -15 -9 -12 -14 -22
-32 -22 -38 0 -7 -7 -10 -15 -6 -9 3 -15 0 -15 -8 0 -8 6 -17 13 -19 9 -4 9
-6 0 -6 -18 -1 -16 -21 4 -43 9 -11 11 -18 5 -18 -15 0 -16 -37 -1 -45 6 -4
13 -4 17 0 4 4 1 10 -5 12 -10 4 -9 8 2 20 8 8 15 23 15 34 0 10 6 18 12 16 7
-1 14 8 16 20 3 22 4 22 28 -5 25 -26 25 -26 21 -4 -4 18 -3 21 8 12 9 -8 14
-8 17 0 2 7 11 -4 21 -24 11 -25 13 -35 4 -33 -7 1 -13 -11 -15 -27 -2 -18 0
-26 7 -21 6 3 9 10 6 15 -8 14 24 5 38 -10 10 -12 9 -12 -4 -2 -13 10 -19 9
-30 -4 -10 -13 -10 -17 1 -24 8 -5 17 -7 20 -5 4 2 6 -6 5 -18 -1 -18 -7 -22
-38 -21 -40 0 -44 -4 -24 -25 8 -9 8 -12 0 -7 -6 3 -14 0 -16 -6 -5 -12 -11
16 -8 35 0 4 -11 7 -25 7 -14 0 -23 -4 -19 -10 3 -5 12 -10 19 -10 8 0 11 -10
8 -31 l-5 -31 45 6 c33 5 53 1 83 -14 22 -11 41 -20 42 -20 10 0 0 24 -17 42
-11 12 -18 23 -15 26 2 2 15 -8 29 -22 31 -34 44 -17 16 21 -11 16 -22 38 -25
51 -2 12 -6 26 -9 31 -4 5 0 12 6 14 7 3 4 6 -7 6 -17 1 -17 3 -5 11 21 14 30
12 30 -5 0 -14 28 -30 75 -42 61 -15 65 -15 65 0 0 13 -26 32 -41 29 -3 -1
-12 10 -19 23 -7 14 -16 25 -19 25 -9 0 -7 63 3 78 4 7 5 25 2 38 -9 35 1 64
20 57 7 -3 14 0 14 5 0 12 -39 27 -47 18 -4 -3 -1 -6 5 -6 6 0 9 -6 6 -14 -3
-8 -12 -12 -20 -9 -8 3 -15 0 -15 -6 -1 -6 -3 -15 -4 -21 -1 -5 -3 -17 -4 -26
0 -9 -6 -12 -13 -8 -8 5 -9 2 -5 -10 4 -9 3 -15 -2 -11 -6 3 -14 -3 -20 -12
-9 -16 -11 -16 -20 7 -6 16 -10 19 -10 8 -1 -24 10 -49 19 -43 4 2 7 -7 8 -20
0 -31 -18 -33 -19 -2 l-1 22 -6 -22 c-7 -22 -7 -22 -19 3 -10 22 -10 25 3 20
16 -6 20 9 4 19 -17 10 -8 54 10 47 11 -4 12 -2 4 7 -8 8 -18 9 -37 2 -19 -8
-27 -7 -31 5 -3 8 -11 14 -18 14 -8 0 -9 -3 -3 -8 13 -9 16 -42 4 -42 -10 0
-11 5 -13 68 -1 23 1 42 6 42 4 0 8 5 8 10 0 6 -7 10 -15 10 -8 0 -15 8 -16
18 0 15 -1 14 -8 -2 -7 -19 -8 -18 -15 5 -4 14 -9 19 -13 11 -2 -6 -9 -9 -15
-6 -5 3 -16 -2 -24 -12 -9 -11 -12 -13 -8 -5 6 11 2 13 -17 7 -35 -12 -169
-18 -144 -7 11 5 23 7 28 4 4 -2 7 0 7 5 0 5 14 8 31 6 18 -2 28 0 24 6 -4 6
1 7 11 3 13 -5 15 -3 9 8 -7 12 -6 12 7 1 11 -9 18 -10 23 -2 3 6 10 8 15 5
14 -9 32 24 26 49 -3 13 -3 32 0 41 6 14 8 14 25 -1 11 -10 22 -14 26 -10 4 4
1 11 -7 16 -13 8 -12 10 3 10 14 0 17 5 12 21 -5 15 -4 19 4 15 6 -4 11 -4 10
1 -4 22 2 43 11 38 6 -3 10 -2 10 4 0 5 -4 13 -10 16 -5 3 -10 12 -10 18 0 8
3 7 9 -2 6 -9 16 -11 27 -7 18 7 17 9 -5 25 -20 15 -22 21 -12 39 8 16 8 22 1
22 -6 0 -9 4 -6 9 3 5 -1 22 -9 37 -13 26 -15 27 -15 7 0 -12 6 -24 13 -26 9
-4 8 -8 -3 -16 -8 -6 -19 -6 -25 -1 -7 5 -17 -2 -27 -21 -9 -16 -13 -29 -8
-29 6 0 10 -8 9 -17 0 -11 -3 -13 -6 -5 -2 6 -8 12 -13 12 -10 0 -8 -20 3 -37
5 -9 3 -11 -6 -7 -9 3 -16 -3 -20 -15 -3 -12 -20 -24 -45 -32 -23 -6 -43 -18
-47 -27 -3 -10 0 -12 10 -9 8 4 17 2 20 -3 4 -6 -3 -10 -14 -10 -12 0 -21 -7
-21 -15 0 -8 -6 -15 -12 -16 -7 0 2 -5 21 -12 19 -7 36 -18 37 -25 1 -7 0 -8
-3 -2 -7 15 -26 12 -20 -3 3 -8 0 -14 -6 -15 -37 -4 -53 -8 -59 -17 -5 -6 -8
-5 -8 2 0 9 -11 6 -35 -7 -50 -28 -69 -26 -63 5 3 14 -1 30 -8 36 -17 14 -19
85 -3 95 6 3 9 21 7 39 l-4 33 26 -17 25 -16 -19 30 -19 30 25 -17 c28 -18 45
-13 27 9 -9 10 -8 13 5 13 9 0 16 5 16 10 0 6 14 10 30 10 17 0 30 5 30 10 0
6 -7 10 -16 10 -13 0 -14 3 -5 14 7 8 16 28 20 44 9 30 9 30 -21 21 -37 -10
-39 -11 -41 -38 -1 -13 -8 -21 -19 -21 -17 0 -23 -12 -19 -34 1 -5 -4 -5 -11
1 -7 6 -21 9 -30 8 -15 -3 -18 4 -18 35 0 32 4 39 30 50 30 12 44 35 15 24 -8
-4 -15 -1 -15 6 0 6 -4 9 -9 5 -6 -3 -9 3 -8 14 1 21 27 17 27 -5 0 -7 6 -11
14 -8 8 3 16 -2 18 -11 3 -14 6 -14 24 4 12 11 25 17 28 14 3 -4 6 -1 6 5 0 6
-9 10 -19 9 -11 0 -17 -5 -15 -9 3 -4 0 -8 -5 -8 -6 0 -11 5 -11 11 0 5 -4 8
-9 4 -6 -3 -25 4 -43 15 -30 18 -31 26 -3 20 6 -1 4 4 -2 11 -17 17 -17 51 0
68 9 11 9 13 0 7 -8 -5 -13 -1 -13 9 0 9 4 14 9 11 5 -4 15 7 23 24 7 16 18
30 25 30 7 0 10 6 7 14 -3 8 0 25 7 38 11 21 11 22 -4 9 -10 -7 -17 -20 -17
-27 0 -8 -4 -14 -10 -14 -5 0 -10 9 -10 19 0 11 -3 28 -6 38 -5 15 -4 15 5 3
9 -12 11 -11 11 8 0 13 -4 20 -10 17 -10 -6 -5 59 7 95 3 8 7 26 10 40 6 33
13 38 19 15 3 -11 23 -33 45 -49 21 -17 39 -33 39 -38 0 -4 9 -8 19 -8 12 0
23 -11 30 -30 5 -17 17 -33 26 -36 8 -3 15 -13 15 -21 0 -11 8 -14 29 -11 17
2 28 1 26 -3 -3 -4 1 -12 9 -18 11 -9 15 -9 19 1 3 8 6 5 6 -6 1 -18 2 -18 14
-4 6 8 27 20 45 26 26 9 32 8 32 -4 0 -7 -5 -14 -12 -14 -6 0 -9 -3 -6 -6 3
-3 15 0 26 7 17 11 18 15 6 26 -9 10 -11 21 -4 38 11 28 8 30 -75 74 -34 17
-73 43 -88 57 -15 13 -27 22 -27 19 0 -4 -7 0 -15 9 -8 8 -15 19 -15 23 0 14
-59 67 -66 60 -9 -9 5 -27 22 -27 8 0 14 -4 14 -10 0 -18 -18 -11 -54 20 -28
25 -35 27 -40 15 -3 -10 1 -18 12 -22 31 -12 82 -58 82 -74 0 -28 -47 -10 -84
32 -34 37 -35 39 -22 75 9 29 18 38 39 40 15 1 27 -1 27 -5 0 -4 7 -8 14 -8 8
0 14 5 13 11 -1 6 4 10 11 8 15 -3 16 15 0 20 -7 3 -8 9 -3 19 13 20 17 59 6
59 -5 0 -12 17 -16 38 -6 31 -9 34 -15 17 -8 -20 -8 -20 -16 -1 -4 12 -3 21 2
23 18 6 3 62 -17 68 -24 8 -24 15 3 71 l21 46 14 -33 c7 -17 11 -34 9 -37 -3
-2 -1 -13 5 -23 6 -13 6 -24 -2 -37 -8 -12 -9 -30 -4 -48 l8 -29 10 28 c17 44
34 32 46 -34 6 -34 15 -67 21 -74 25 -30 169 -21 240 15 93 47 184 158 288
348 125 232 177 352 150 352 -6 0 -3 11 6 25 9 14 13 25 9 25 -5 0 -3 4 2 8
28 20 85 173 85 225 l-1 32 -15 -40 c-8 -22 -19 -53 -24 -69 -5 -16 -17 -37
-26 -47 -9 -10 -14 -24 -12 -31 3 -7 -3 -20 -12 -28 -9 -8 -19 -23 -23 -33 -5
-13 -13 -16 -27 -12 -15 5 -20 2 -20 -12 0 -15 2 -16 10 -3 5 8 10 11 10 5 -1
-12 -25 -45 -34 -45 -3 0 -6 7 -6 16 0 12 -6 15 -21 11 -12 -3 -22 0 -26 9 -9
25 -24 15 -17 -12 5 -17 3 -25 -3 -21 -6 4 -20 -2 -32 -12 -18 -16 -64 -28
-136 -36 -5 -1 -23 3 -40 8 -16 5 -39 9 -50 8 -11 0 -41 4 -67 10 -43 10 -47
13 -37 30 18 35 90 72 144 74 64 3 62 2 68 25 7 29 -12 39 -81 42 -48 2 -60 6
-53 16 12 20 119 26 196 12 67 -13 68 -12 86 11 18 23 18 24 -4 42 -12 9 -32
16 -44 14 -14 -3 -24 2 -26 12 -4 13 -5 13 -6 -2 -1 -14 -6 -17 -21 -12 -13 4
-22 1 -26 -9 -7 -18 -59 -22 -69 -6 -3 5 -13 6 -22 3 -11 -4 -14 -2 -11 8 3 8
13 14 24 14 12 0 20 8 22 22 2 12 10 27 18 33 8 7 14 28 14 46 l0 34 -64 0
c-35 0 -92 7 -126 16 l-61 15 -32 -33 c-42 -45 -73 -53 -107 -28 -31 22 -46
75 -29 97 7 7 42 29 80 49 74 39 159 121 159 153 0 11 13 29 30 41 26 18 28
24 17 41 -6 10 -20 19 -30 19 -10 0 -29 7 -43 16 -21 15 -28 15 -50 4 -21 -12
-33 -12 -72 -1 -26 8 -63 17 -82 20 -33 6 -35 8 -34 46 3 79 10 97 50 127 27
20 49 28 70 26 30 -2 89 30 107 59 9 15 37 18 37 3 0 -5 5 -10 10 -10 6 0 10
7 10 16 0 10 6 14 14 11 9 -4 17 2 21 13 3 10 16 25 29 34 21 13 26 13 36 1
16 -20 22 -19 48 5 12 12 23 16 27 10 3 -6 24 -10 46 -10 21 0 39 -4 39 -9 0
-5 7 -12 16 -15 13 -5 15 -2 11 16 -6 22 -5 22 8 4 8 -11 15 -26 15 -33 0 -7
5 -13 11 -13 5 0 15 -13 20 -30 6 -16 14 -30 18 -30 13 0 31 24 31 43 0 10 5
15 10 12 6 -3 10 0 11 7 0 7 5 3 11 -9 6 -13 16 -23 22 -23 6 0 4 -5 -4 -10
-9 -6 -10 -10 -3 -10 7 0 16 7 21 16 6 11 11 13 16 5 4 -6 3 -11 -2 -11 -5 0
-6 -14 -4 -31 4 -24 2 -30 -8 -24 -10 6 -12 -3 -6 -44 7 -51 21 -83 70 -158
17 -26 27 -60 31 -105 5 -43 12 -69 21 -72 8 -3 14 -13 14 -22 0 -15 2 -15 21
2 11 10 27 33 34 51 8 18 21 33 29 33 20 0 42 78 27 93 -8 8 -20 6 -42 -7 -17
-10 -32 -16 -35 -14 -2 3 1 51 8 109 14 124 15 167 6 236 -6 40 -4 52 7 57 12
4 12 11 0 47 -8 23 -15 57 -15 75 0 29 -3 34 -24 34 -14 0 -26 -6 -29 -12 -2
-7 -3 -5 -2 5 3 15 -6 21 -27 18 -11 -1 -20 38 -13 60 5 14 3 19 -3 15 -16
-10 -23 8 -16 43 8 37 19 33 28 -10 5 -27 8 -30 21 -19 21 17 15 55 -8 55 -10
0 -22 7 -27 15 -8 13 -11 12 -24 -5 -9 -11 -16 -18 -16 -15 -1 3 -3 13 -5 22
-5 28 -57 66 -99 72 -22 4 -54 20 -73 36 -21 19 -45 30 -63 30 -16 0 -32 5
-35 10 -10 16 -75 40 -109 40 -17 0 -48 -5 -70 -11 -30 -8 -41 -8 -47 2 -6 11
-15 11 -45 0 -60 -22 -102 -25 -106 -8 -3 13 -5 13 -16 1z m581 -203 c9 -7 13
-19 10 -27 -4 -12 -8 -12 -19 3 -10 14 -13 15 -14 3 0 -12 -3 -12 -16 2 -30
30 5 48 39 19z m39 -43 c-9 -9 -12 -7 -12 12 0 19 3 21 12 12 9 -9 9 -15 0
-24z m-145 -4 c-3 -3 -12 -4 -19 -1 -8 3 -5 6 6 6 11 1 17 -2 13 -5z m185 -28
c-3 -11 -7 -15 -10 -8 -6 19 -22 14 -22 -8 0 -25 -15 -26 -24 -3 -4 10 -4 14
0 10 4 -4 13 1 20 11 18 26 43 24 36 -2z m12 -51 c-4 -8 -11 -15 -16 -15 -6 0
-5 6 2 15 7 8 14 15 16 15 2 0 1 -7 -2 -15z m-659 -285 c-3 -5 -11 -10 -17
-10 -6 0 -20 -7 -30 -17 -22 -20 -28 -15 -17 15 6 16 16 22 39 22 18 0 29 -4
25 -10z m-979 -681 c13 -10 17 -10 24 1 5 8 6 18 3 24 -3 5 -1 6 5 2 9 -5 9
-13 1 -28 -10 -18 -8 -25 10 -39 11 -9 21 -20 21 -23 0 -4 8 -18 17 -33 20
-31 23 -40 30 -114 10 -108 -40 -213 -136 -286 -23 -18 -52 -33 -64 -33 -18 0
-19 2 -7 10 8 5 12 10 9 10 -3 0 -31 5 -63 11 -145 26 -240 147 -235 296 3
102 54 160 185 209 45 17 78 23 101 19 22 -3 32 -1 28 5 -4 7 3 9 19 6 16 -3
27 0 27 7 1 7 4 2 6 -10 2 -12 11 -27 19 -34z m1020 -54 c-9 -14 -23 -25 -32
-25 -16 0 -14 5 20 55 17 25 21 27 24 12 2 -10 -4 -29 -12 -42z m-761 -104 c3
-5 2 -12 -3 -15 -5 -3 -9 1 -9 9 0 17 3 19 12 6z m92 -53 c-3 -8 -6 -5 -6 6
-1 11 2 17 5 13 3 -3 4 -12 1 -19z m523 -120 c0 -19 -2 -20 -10 -8 -13 19 -13
30 0 30 6 0 10 -10 10 -22z m-33 -140 c-3 -7 -5 -2 -5 12 0 14 2 19 5 13 2 -7
2 -19 0 -25z m-69 -68 c26 -1 26 -1 8 -15 -22 -17 -82 -20 -91 -5 -3 6 3 10
15 10 11 0 24 8 27 17 4 11 8 12 11 5 2 -7 16 -12 30 -12z m-87 -70 c5 0 9 -7
9 -16 0 -8 -4 -13 -9 -10 -4 3 -7 -10 -5 -29 1 -19 -1 -35 -6 -35 -13 0 -16
22 -11 85 3 34 7 48 9 33 2 -16 8 -28 13 -28z m119 0 c0 -6 -9 -10 -20 -10
-14 0 -18 -5 -13 -17 4 -12 -3 -9 -21 9 -29 30 -33 43 -11 35 8 -4 17 -2 20 3
7 12 45 -6 45 -20z m-83 -62 c-3 -8 -6 -5 -6 6 -1 11 2 17 5 13 3 -3 4 -12 1
-19z m-1061 -54 c27 -14 62 -38 77 -52 58 -55 116 -222 88 -255 -6 -8 -8 -17
-5 -20 3 -3 -3 -15 -14 -27 l-20 -21 -6 25 c-3 13 -8 44 -11 68 -12 97 -46
168 -79 168 -6 0 -22 21 -36 48 -19 35 -36 53 -70 69 l-45 22 36 1 c20 0 58
-11 85 -26z m1171 -352 c7 -5 -2 -15 -26 -28 l-38 -21 16 29 c16 29 27 33 48
20z m-575 -137 c-6 -27 -14 -75 -18 -105 -3 -30 -10 -64 -14 -75 -7 -18 -9
-18 -19 8 -26 66 -5 184 43 246 17 22 20 -13 8 -74z m-287 -72 c3 -9 3 -18 0
-21 -3 -3 -5 0 -5 6 0 7 -6 12 -14 12 -7 0 -19 6 -25 14 -9 11 -6 12 13 9 14
-3 27 -12 31 -20z m-65 11 c0 -8 -19 -13 -24 -6 -3 5 1 9 9 9 8 0 15 -2 15 -3z
m116 -31 c-6 -6 -36 9 -36 18 0 5 9 4 20 -3 10 -7 18 -14 16 -15z m672 -248
c-6 -14 -13 -23 -15 -21 -5 5 15 46 22 46 3 0 -1 -11 -7 -25z m3163 -78 c-10
-9 -11 -8 -5 6 3 10 9 15 12 12 3 -3 0 -11 -7 -18z m-1862 -10 c0 -9 -2 -8 -6
1 -2 6 -10 9 -15 6 -7 -4 -8 -2 -4 5 9 13 26 5 25 -12z m1835 -12 c-8 -19 -33
-7 -31 15 1 14 5 16 19 9 9 -5 15 -16 12 -24z m-3796 -52 c-13 -13 -34 -25
-46 -28 -12 -2 -27 -7 -32 -10 -6 -3 -10 -2 -10 2 0 5 -12 9 -27 8 -35 0 -41
23 -8 31 20 5 24 9 13 16 -9 6 -3 8 19 5 20 -2 34 1 37 9 4 10 13 10 41 1 l36
-11 -23 -23z m1872 43 c0 -2 -8 -10 -17 -17 -16 -13 -17 -12 -4 4 13 16 21 21
21 13z m219 -40 c-1 -17 -2 -17 -6 -3 -6 22 -23 22 -23 0 0 -12 -3 -14 -11 -6
-8 8 -8 17 1 33 9 17 14 19 26 9 8 -6 13 -21 13 -33z m1548 -8 c-3 -8 -6 -5
-6 6 -1 11 2 17 5 13 3 -3 4 -12 1 -19z m-3511 -62 l1 -64 -43 -7 c-59 -8
-121 10 -158 48 l-31 32 28 3 c17 2 25 8 21 14 -5 7 -2 8 7 2 16 -10 49 -6 65
7 6 5 14 6 17 3 3 -3 16 1 29 10 12 9 32 16 43 16 18 0 20 -7 21 -64z m1886
-21 c3 -13 1 -22 -3 -19 -9 5 -13 44 -5 44 2 0 6 -11 8 -25z m479 11 c-9 -11
-9 -15 1 -19 7 -3 3 -6 -9 -6 -27 -1 -28 2 -7 23 19 20 31 21 15 2z m-381 -38
c0 -7 -5 -6 -13 1 -19 15 -30 1 -14 -18 11 -14 10 -14 -6 -2 -23 18 -32 8 -11
-13 9 -9 13 -20 9 -24 -4 -4 -10 -1 -12 6 -3 6 -11 12 -18 12 -7 0 -16 -6 -18
-12 -4 -10 -8 -9 -16 2 -10 13 -12 13 -21 0 -5 -8 -10 -10 -10 -4 0 6 7 17 15
24 10 9 15 9 15 1 0 -6 5 -11 10 -11 6 0 10 6 10 13 0 8 11 20 25 27 14 7 25
18 25 23 0 5 7 4 15 -3 8 -7 15 -17 15 -22z m46 -14 c-3 -9 -6 -20 -6 -25 0
-6 -8 -8 -19 -4 -12 4 -21 0 -25 -11 -4 -9 -9 -14 -12 -11 -9 9 16 48 27 42 5
-4 12 1 15 9 3 9 11 16 16 16 6 0 7 -7 4 -16z m49 -14 c8 -13 -5 -13 -25 0
-13 8 -13 10 2 10 9 0 20 -4 23 -10z m-1217 -30 c3 -30 -27 -102 -39 -94 -5 3
-9 10 -9 15 0 6 5 7 11 3 13 -7 9 58 -4 67 -13 9 2 35 21 35 12 0 19 -9 20
-26z m1227 0 c3 -5 1 -10 -4 -10 -6 0 -11 5 -11 10 0 6 2 10 4 10 3 0 8 -4 11
-10z m-146 -44 c-2 -2 -15 -7 -29 -10 l-25 -7 25 15 c21 12 42 14 29 2z
m-1145 -52 c3 -8 2 -12 -4 -9 -6 3 -10 10 -10 16 0 14 7 11 14 -7z m16 -36 c0
-9 4 -8 10 2 8 13 10 12 10 -2 0 -21 -11 -23 -28 -6 -9 9 -12 9 -12 -1 0 -7
-5 -9 -11 -5 -8 4 -7 9 2 15 20 12 29 11 29 -3z m-50 -12 c0 -2 -7 -6 -15 -10
-8 -3 -15 -1 -15 4 0 6 7 10 15 10 8 0 15 -2 15 -4z m20 -27 c0 -5 -4 -7 -10
-4 -5 3 -10 1 -10 -4 0 -6 -8 -11 -17 -11 -15 0 -14 2 3 15 23 17 34 19 34 4z
m-65 -19 c3 -5 1 -10 -4 -10 -6 0 -11 5 -11 10 0 6 2 10 4 10 3 0 8 -4 11 -10z
m71 -139 c-21 -23 -49 -32 -67 -20 -10 6 -5 11 16 18 17 6 37 15 45 20 22 13
26 4 6 -18z m3155 5 c33 20 73 1 58 -28 -5 -9 -6 -24 -2 -34 5 -13 3 -16 -10
-11 -12 4 -14 2 -10 -10 4 -10 2 -14 -4 -10 -6 4 -14 1 -16 -5 -3 -8 -6 -6 -6
5 -1 19 -21 24 -21 5 -1 -29 -17 -41 -39 -29 -12 7 -19 16 -16 21 15 24 -48
11 -67 -14 -12 -17 -44 -13 -44 5 0 10 2 16 4 14 7 -6 30 19 25 27 -2 4 3 5
11 2 10 -4 15 2 18 18 2 13 11 24 22 26 11 3 16 0 12 -7 -4 -6 0 -11 9 -11 12
0 15 5 11 16 -5 13 -3 14 6 7 18 -14 52 -13 38 1 -5 5 -10 15 -10 21 0 5 4 4
9 -4 6 -8 14 -10 22 -5z m-2631 -32 c0 -8 -5 -12 -10 -9 -6 4 -8 11 -5 16 9
14 15 11 15 -7z m-19 -23 c11 -10 16 -22 11 -25 -5 -3 -17 5 -26 19 -20 30
-13 32 15 6z m-1981 -31 c15 -8 42 -10 77 -5 68 8 65 -11 -4 -21 -46 -7 -145
16 -158 35 -7 13 59 5 85 -9z m1538 -21 c-3 -8 -7 -3 -11 10 -4 17 -3 21 5 13
5 -5 8 -16 6 -23z m75 -4 c-3 -9 -8 -14 -10 -11 -3 3 -2 9 2 15 9 16 15 13 8
-4z m344 -27 c-3 -8 -6 -5 -6 6 -1 11 2 17 5 13 3 -3 4 -12 1 -19z m1663 -1
c0 -7 -4 -6 -10 3 -8 13 -10 12 -10 -3 0 -10 -4 -15 -10 -12 -5 3 -10 2 -10
-4 0 -5 8 -15 18 -21 14 -9 12 -10 -12 -8 -16 2 -31 10 -33 18 -4 13 -3 13 6
0 9 -13 11 -13 11 2 0 9 7 24 16 32 16 17 34 13 34 -7z m-1884 1 c4 -7 3 -8
-4 -4 -7 4 -12 2 -12 -4 0 -6 -5 -8 -11 -4 -8 4 -7 9 2 15 18 11 17 11 25 -3z
m2148 -16 c2 -4 -4 -9 -15 -9 -10 -1 -19 2 -19 8 0 11 27 12 34 1z m-2149 -66
c14 -14 10 -26 -8 -26 -6 0 -7 3 -4 7 4 3 2 12 -4 20 -15 17 -2 17 16 -1z
m-396 -63 c-1 -5 -1 -15 0 -23 1 -12 3 -12 10 -2 6 10 10 7 13 -12 3 -14 1
-26 -3 -26 -12 0 -40 56 -32 64 8 8 13 8 12 -1z m336 -13 c-3 -5 -10 -10 -16
-10 -5 0 -9 5 -9 10 0 6 7 10 16 10 8 0 12 -4 9 -10z m-5 -30 c0 -5 -5 -10
-11 -10 -5 0 -7 5 -4 10 3 6 8 10 11 10 2 0 4 -4 4 -10z m-66 -28 c3 -5 -1 -9
-9 -9 -8 0 -12 4 -9 9 3 4 7 8 9 8 2 0 6 -4 9 -8z m2281 -37 c24 -2 65 -18 65
-25 0 -4 14 -7 31 -8 18 0 37 -6 43 -13 8 -9 8 -10 -1 -5 -7 4 -13 2 -13 -3 0
-6 8 -11 17 -11 9 0 14 -3 10 -6 -3 -4 -34 -7 -69 -9 -46 -1 -62 -6 -60 -15 3
-11 0 -11 -12 -1 -8 7 -20 10 -27 6 -6 -4 -14 -3 -18 3 -3 5 -29 12 -57 15
-29 2 -58 8 -65 13 -8 5 -23 9 -34 9 -12 0 -19 6 -17 14 2 9 -4 12 -18 8 -11
-3 -18 -1 -14 4 3 5 0 9 -7 9 -8 0 -8 4 1 15 11 14 15 14 32 -2 13 -11 22 -14
26 -7 8 13 101 12 121 0 10 -7 12 -6 6 4 -6 10 -4 12 10 6 16 -6 16 -4 4 10
-13 16 -12 16 11 4 14 -8 30 -15 35 -15z m-4137 -52 c-5 -25 -28 -28 -28 -4 0
12 6 21 16 21 9 0 14 -7 12 -17z m4802 -33 c0 -13 -37 -13 -45 0 -3 6 -3 15 0
20 7 12 45 -5 45 -20z m141 -33 c-10 -9 -11 -8 -5 6 3 10 9 15 12 12 3 -3 0
-11 -7 -18z m-4931 -13 c0 -8 -7 -14 -15 -14 -15 0 -21 21 -9 33 10 9 24 -2
24 -19z m4758 -5 c-2 -6 -8 -10 -13 -10 -5 0 -11 4 -13 10 -2 6 4 11 13 11 9
0 15 -5 13 -11z m-831 -34 c9 -24 -1 -27 -15 -5 -8 13 -8 20 -2 20 6 0 13 -7
17 -15z m-1869 -9 c-9 -6 -25 -27 -37 -46 -14 -24 -21 -29 -21 -17 0 23 40 73
59 74 11 0 11 -3 -1 -11z m-67 -19 c-10 -9 -11 -8 -5 6 3 10 9 15 12 12 3 -3
0 -11 -7 -18z m2006 -4 c0 -9 -4 -10 -12 -3 -7 6 -21 8 -31 4 -15 -5 -16 -4
-5 4 20 14 48 11 48 -5z m-2097 -14 c0 -14 -17 -10 -23 5 -4 10 -1 13 9 9 7
-3 14 -9 14 -14z"/>
<path d="M4195 300 c3 -5 8 -10 11 -10 2 0 4 5 4 10 0 6 -5 10 -11 10 -5 0 -7
-4 -4 -10z"/>
<path d="M6 4005 c-9 -26 -7 -55 5 -55 5 0 8 4 5 9 -4 5 1 8 10 7 8 -1 20 -9
25 -17 7 -11 9 -11 9 -1 0 7 5 10 11 6 7 -4 8 -9 0 -17 -7 -7 -14 -7 -24 2
-26 21 -44 3 -43 -44 0 -24 3 -39 7 -33 4 7 5 16 2 22 -3 5 -1 6 5 2 6 -4 9
-12 6 -20 -3 -7 1 -13 9 -13 9 0 13 8 10 21 -4 17 -3 18 6 6 8 -12 11 -12 11
-2 0 8 -9 16 -19 19 -27 7 -5 31 25 27 12 -1 21 3 19 9 -5 27 -18 47 -29 46
-28 -3 -50 2 -39 9 7 4 9 13 4 21 -6 10 -10 9 -15 -4z"/>
<path d="M36 4005 c4 -8 11 -15 16 -15 6 0 5 6 -2 15 -7 8 -14 15 -16 15 -2 0
-1 -7 2 -15z"/>
<path d="M18 3833 c-15 -4 -18 -16 -18 -73 0 -58 3 -68 19 -73 13 -3 18 0 15
8 -3 6 2 18 11 25 13 11 14 10 9 -5 -5 -13 -4 -16 4 -11 7 4 12 14 12 22 0 9
5 12 12 8 7 -5 8 -3 4 5 -5 7 -14 10 -22 7 -7 -3 -16 -1 -19 5 -4 5 -1 8 6 7
7 -2 17 12 22 30 14 44 -4 59 -55 45z m52 -24 c0 -4 -10 -13 -22 -19 -22 -11
-22 -10 -4 4 18 15 18 16 2 16 -9 0 -15 4 -11 10 6 11 35 2 35 -11z"/>
<path d="M308 3788 c-5 -27 9 -34 24 -13 11 14 10 27 -1 21 -5 -4 -11 0 -13 6
-3 7 -7 1 -10 -14z"/>
<path d="M4985 3520 c-3 -5 -1 -10 4 -10 6 0 11 5 11 10 0 6 -2 10 -4 10 -3 0
-8 -4 -11 -10z"/>
<path d="M4958 3486 c-10 -7 -18 -19 -18 -25 0 -7 -4 -9 -10 -6 -6 4 -10 -6
-10 -22 0 -20 -9 -37 -30 -53 -30 -26 -39 -50 -18 -50 6 0 8 -3 5 -6 -4 -4
-14 -1 -24 7 -9 8 -14 10 -11 4 5 -9 -22 -44 -29 -37 -8 6 -23 1 -19 -7 3 -5
-8 -15 -25 -23 -23 -12 -27 -17 -15 -21 9 -4 16 -12 16 -18 0 -8 -4 -8 -12 -2
-9 6 -22 5 -38 -3 -14 -8 -20 -14 -14 -14 7 0 15 -8 19 -17 5 -14 3 -15 -6 -6
-14 14 -62 -4 -52 -20 4 -6 1 -7 -8 -2 -26 16 -47 13 -44 -7 2 -10 0 -16 -4
-13 -13 7 -72 -16 -65 -26 3 -5 -2 -9 -10 -9 -8 0 -18 5 -21 10 -5 8 -11 8
-19 1 -7 -6 -17 -7 -21 -3 -5 4 -5 1 -1 -6 6 -10 11 -10 21 -2 10 9 16 7 24
-8 9 -17 7 -18 -13 -15 -25 5 -42 -19 -30 -40 5 -8 2 -7 -7 1 -17 16 -29 15
-29 -1 0 -14 -34 -58 -41 -54 -2 1 1 -3 8 -9 9 -8 7 -16 -10 -34 -12 -12 -17
-20 -11 -16 12 6 29 -65 27 -116 0 -16 3 -28 8 -28 5 0 5 -7 0 -17 -5 -10 -19
-38 -31 -63 -24 -50 -98 -114 -145 -124 -65 -14 -82 -16 -130 -18 -34 -1 -66
6 -100 22 -27 13 -55 23 -62 22 -7 -2 -18 6 -25 17 -11 18 -13 18 -26 3 -7 -9
-11 -11 -7 -4 3 6 0 12 -7 12 -9 0 -10 2 -2 8 9 5 8 11 -2 20 -12 11 -14 9 -9
-17 3 -19 1 -31 -5 -31 -6 0 -9 4 -5 9 3 5 -9 16 -26 25 -22 11 -28 12 -20 2
14 -17 2 -29 -16 -15 -9 9 -13 8 -13 0 0 -6 -7 -11 -15 -11 -8 0 -15 -5 -15
-11 0 -5 4 -8 8 -5 4 3 13 -8 19 -24 10 -27 10 -28 -18 -20 -30 9 -36 3 -19
-18 6 -6 7 -10 4 -7 -7 5 -47 -42 -51 -59 -1 -6 -4 -21 -7 -34 -4 -18 6 -34
48 -75 58 -56 103 -135 114 -200 8 -43 12 -46 85 -72 26 -9 61 -28 76 -41 16
-13 38 -24 49 -24 13 0 22 -9 26 -25 4 -14 10 -23 15 -20 5 2 12 -2 15 -11 3
-9 12 -14 20 -11 7 3 19 0 25 -6 8 -8 11 -8 11 0 0 8 13 7 44 -2 24 -8 46 -11
49 -9 2 3 17 6 33 8 38 5 84 24 64 26 -8 1 -5 5 8 8 13 4 22 9 20 12 -2 3 7
17 20 30 13 14 26 37 29 52 3 15 9 25 14 22 5 -3 6 2 3 11 -4 8 -1 22 5 29 8
10 9 16 1 21 -5 3 -10 13 -10 21 0 8 4 13 9 10 5 -4 4 10 -2 29 -12 40 -44 78
-58 70 -5 -4 -9 2 -9 11 0 10 -3 14 -7 11 -3 -4 -12 -2 -19 4 -10 8 -15 8 -19
-3 -6 -15 -32 -17 -52 -5 -14 9 -43 -2 -43 -15 0 -6 -9 -8 -20 -5 -14 4 -25
-1 -33 -14 -6 -10 -19 -19 -27 -19 -9 0 -25 -7 -36 -15 -18 -14 -17 -14 10 -5
26 10 28 9 16 -5 -8 -10 -23 -15 -37 -12 -25 5 -38 -18 -27 -47 4 -11 2 -16
-7 -14 -8 2 -13 -3 -12 -9 2 -7 -4 -13 -13 -13 -10 0 -14 -6 -10 -15 3 -8 1
-15 -4 -15 -5 0 -7 -8 -5 -17 3 -10 -2 -3 -10 15 -13 27 -14 44 -6 88 13 66
25 91 74 143 47 51 98 73 160 72 63 -2 113 -23 160 -69 134 -129 106 -331 -56
-413 -63 -33 -162 -37 -215 -10 -23 11 -43 21 -46 21 -3 0 -2 -24 1 -52 9 -85
42 -110 148 -114 92 -3 87 -2 79 -15 -4 -7 -1 -10 7 -7 8 3 13 13 13 22 -2 13
1 14 12 5 8 -6 14 -8 14 -3 0 4 5 3 11 -3 9 -9 16 -9 29 0 14 8 24 7 42 -5 25
-16 65 -7 53 13 -3 5 1 6 9 3 10 -4 16 -1 16 7 1 10 3 10 10 -2 6 -11 19 -14
39 -11 18 2 28 9 24 15 -3 6 -1 7 6 3 9 -6 9 -11 0 -22 -6 -7 -15 -12 -19 -9
-5 3 -12 1 -15 -5 -4 -6 -1 -9 7 -8 8 2 12 -5 11 -17 -1 -11 0 -14 3 -7 3 6
12 12 19 12 7 0 16 6 19 13 4 8 5 7 5 -3 -3 -40 0 -43 27 -25 14 9 33 18 42
20 9 3 37 9 62 15 68 17 113 5 165 -44 l45 -43 0 610 0 609 -44 39 c-64 57
-98 119 -103 194 -8 90 10 160 55 214 20 25 36 49 35 52 -1 4 3 6 10 6 43 -1
47 3 47 48 0 48 -11 55 -42 31z m-33 -106 c-3 -5 -12 -10 -18 -10 -7 0 -6 4 3
10 19 12 23 12 15 0z m-331 -259 c4 -5 -1 -8 -9 -7 -21 3 -31 16 -12 16 9 0
18 -4 21 -9z m16 -259 c0 -14 -11 -21 -26 -15 -8 3 -11 9 -8 14 7 11 34 12 34
1z m-55 -13 c-3 -3 6 -11 19 -17 19 -8 25 -8 29 2 6 15 47 29 47 16 0 -5 3
-15 6 -24 4 -10 1 -16 -10 -16 -10 0 -13 6 -10 18 5 14 4 15 -5 2 -7 -11 -6
-19 4 -30 13 -12 17 -12 30 5 14 19 14 19 15 -7 0 -28 -17 -34 -46 -16 -6 4
-21 6 -33 3 -13 -2 -21 1 -21 10 0 8 -6 13 -12 11 -7 -1 -10 -1 -5 1 14 9 7
22 -15 25 -27 4 -36 27 -9 25 11 0 18 -4 16 -8z m151 -66 c-10 -10 -19 5 -10
18 6 11 8 11 12 0 2 -7 1 -15 -2 -18z m71 21 c-3 -3 -12 -4 -19 -1 -8 3 -5 6
6 6 11 1 17 -2 13 -5z m-41 -64 c3 0 4 9 1 21 -4 16 -3 18 9 8 17 -14 18 -38
2 -35 -7 1 -24 8 -37 15 -19 10 -21 15 -10 22 10 6 16 2 21 -11 4 -11 10 -20
14 -20z m-69 4 c-9 -9 -28 6 -21 18 4 6 10 6 17 -1 6 -6 8 -13 4 -17z m-870
-136 c-3 -8 -6 -5 -6 6 -1 11 2 17 5 13 3 -3 4 -12 1 -19z m73 -13 c0 -2 -9
-3 -19 -2 -11 0 -18 5 -15 9 4 6 34 0 34 -7z m380 -311 c0 -2 -9 -4 -21 -4
-11 0 -18 4 -14 10 5 8 35 3 35 -6z"/>
<path d="M2004 3345 c-4 -8 -1 -22 6 -30 7 -8 9 -15 5 -15 -5 0 -1 -8 7 -17 9
-10 23 -34 31 -54 16 -39 88 -89 129 -89 37 -1 195 82 207 108 16 34 13 45
-17 67 -24 18 -44 20 -167 22 -77 0 -153 6 -168 12 -22 9 -29 8 -33 -4z"/>
<path d="M4660 3200 c-13 -8 -12 -10 3 -10 9 0 17 5 17 10 0 12 -1 12 -20 0z"/>
<path d="M4957 3204 c-12 -12 5 -33 21 -26 14 5 15 3 5 -9 -10 -13 -10 -16 0
-16 20 0 16 29 -5 35 -10 2 -15 8 -12 13 6 10 0 12 -9 3z"/>
<path d="M4446 3082 c-3 -5 1 -9 9 -9 8 0 12 4 9 9 -3 4 -7 8 -9 8 -2 0 -6 -4
-9 -8z"/>
<path d="M1876 3054 c-9 -24 -2 -26 12 -4 7 11 8 20 3 20 -5 0 -12 -7 -15 -16z"/>
<path d="M1550 2826 c0 -61 7 -70 16 -20 3 15 7 31 9 34 2 4 -2 16 -10 26 -13
17 -14 13 -15 -40z"/>
<path d="M1021 2818 c-1 -20 14 -24 25 -6 4 6 3 8 -4 4 -5 -3 -13 0 -15 6 -3
8 -6 6 -6 -4z"/>
<path d="M1550 2745 c0 -8 4 -15 10 -15 5 0 7 7 4 15 -4 8 -8 15 -10 15 -2 0
-4 -7 -4 -15z"/>
<path d="M1195 2730 c3 -5 8 -10 11 -10 2 0 4 5 4 10 0 6 -5 10 -11 10 -5 0
-7 -4 -4 -10z"/>
<path d="M2521 2698 c0 -13 4 -32 8 -43 8 -19 8 -19 15 2 4 12 2 31 -4 43 -14
26 -20 25 -19 -2z"/>
<path d="M1537 2687 c-3 -8 1 -14 9 -14 16 0 19 13 5 21 -5 3 -11 0 -14 -7z"/>
<path d="M1583 2663 c-15 -5 -17 -23 -4 -23 5 0 11 7 15 15 3 8 4 15 3 14 -1
0 -8 -3 -14 -6z"/>
<path d="M2836 2311 c-37 -21 -64 -41 -58 -45 15 -9 42 3 79 35 17 14 37 29
45 31 7 3 11 8 8 11 -3 3 -36 -11 -74 -32z"/>
<path d="M2379 2243 c-12 -21 -22 -41 -21 -45 1 -5 -3 -8 -9 -8 -6 0 -17 -7
-25 -15 -17 -17 -15 -60 3 -60 6 0 15 -3 19 -7 4 -5 0 -8 -9 -8 -11 0 -17 -8
-17 -21 0 -11 -5 -30 -11 -41 -8 -16 -8 -22 2 -28 8 -6 30 10 65 46 34 36 51
49 50 37 -1 -16 7 -18 63 -17 36 0 66 5 68 10 9 24 23 36 59 49 21 7 39 18 38
24 -1 6 -2 26 -2 45 -2 32 -6 36 -57 55 -37 14 -79 21 -124 21 -69 0 -69 0
-92 -37z m21 -82 c0 -16 -7 -34 -15 -41 -13 -11 -18 -10 -29 6 -14 19 -11 43
8 56 22 15 36 7 36 -21z"/>
<path d="M2270 2145 c-7 -9 -11 -17 -9 -20 3 -2 10 5 17 15 14 24 10 26 -8 5z"/>
<path d="M2810 2106 c0 -9 30 -14 35 -6 4 6 -3 10 -14 10 -12 0 -21 -2 -21 -4z"/>
<path d="M2748 2080 c12 -5 22 -15 22 -21 0 -8 4 -8 13 -1 6 5 19 12 27 15 8
2 3 3 -12 1 -15 -2 -30 1 -33 6 -3 6 -14 10 -23 9 -12 0 -11 -3 6 -9z"/>
<path d="M2263 2028 c-22 -28 -23 -36 -6 -34 10 2 19 13 21 24 4 25 -1 28 -15
10z"/>
<path d="M2270 1950 c-11 -11 -18 -25 -15 -30 3 -5 0 -7 -8 -4 -18 6 -169
-154 -196 -208 -10 -21 -20 -36 -22 -33 -3 2 -5 -5 -5 -15 0 -12 7 -20 16 -20
17 0 100 57 100 68 0 4 19 27 42 52 38 41 102 150 103 175 0 6 4 13 10 17 5 4
7 10 3 13 -3 4 -16 -3 -28 -15z"/>
<path d="M4565 1760 c-3 -5 -1 -10 4 -10 6 0 11 5 11 10 0 6 -2 10 -4 10 -3 0
-8 -4 -11 -10z"/>
<path d="M1685 1721 c17 -16 32 -27 34 -25 7 6 -41 54 -53 54 -6 0 3 -13 19
-29z"/>
<path d="M2491 1684 c0 -11 3 -14 6 -6 3 7 2 16 -1 19 -3 4 -6 -2 -5 -13z"/>
<path d="M1988 1619 c-7 -4 -6 -8 2 -11 9 -3 8 -8 -4 -20 -9 -9 -13 -24 -10
-32 5 -12 2 -15 -10 -10 -9 3 -16 2 -16 -3 0 -5 11 -9 24 -9 17 0 22 4 18 16
-5 12 -3 13 9 4 11 -9 17 -8 29 4 13 14 12 15 -3 9 -23 -9 -22 5 3 33 11 13
20 24 20 25 0 5 -52 0 -62 -6z"/>
<path d="M2120 1570 c0 -5 5 -10 11 -10 5 0 7 5 4 10 -3 6 -8 10 -11 10 -2 0
-4 -4 -4 -10z"/>
<path d="M2781 1564 c0 -11 3 -14 6 -6 3 7 2 16 -1 19 -3 4 -6 -2 -5 -13z"/>
<path d="M2040 1545 c-7 -9 -11 -17 -9 -20 3 -2 10 5 17 15 14 24 10 26 -8 5z"/>
<path d="M1966 1501 c-10 -11 -13 -22 -8 -25 5 -3 12 4 15 15 3 12 10 18 16
14 6 -3 11 -1 11 4 0 17 -15 13 -34 -8z"/>
<path d="M2145 1500 c-3 -5 -2 -18 4 -27 7 -14 9 -12 8 10 -2 30 -3 31 -12 17z"/>
<path d="M2173 1478 c0 -18 2 -27 5 -20 2 6 8 9 14 6 8 -5 -5 29 -17 44 -1 1
-2 -13 -2 -30z"/>
<path d="M3452 1480 c0 -14 2 -19 5 -12 2 6 2 18 0 25 -3 6 -5 1 -5 -13z"/>
<path d="M1990 1441 c0 -6 4 -13 10 -16 6 -3 7 1 4 9 -7 18 -14 21 -14 7z"/>
<path d="M1772 1405 c11 -25 28 -34 28 -15 0 6 -4 10 -10 10 -5 0 -10 7 -10
15 0 8 -4 15 -10 15 -6 0 -5 -10 2 -25z"/>
<path d="M1730 1395 c-27 -16 -27 -16 13 -19 28 -2 31 1 19 21 -5 8 -13 8 -32
-2z"/>
<path d="M2850 1399 c0 -5 5 -7 10 -4 6 3 10 8 10 11 0 2 -4 4 -10 4 -5 0 -10
-5 -10 -11z"/>
<path d="M2548 1383 c7 -3 16 -2 19 1 4 3 -2 6 -13 5 -11 0 -14 -3 -6 -6z"/>
<path d="M3300 1372 c0 -12 15 -17 35 -12 6 1 20 2 33 2 16 0 20 4 13 11 -7 7
-18 7 -35 0 -17 -8 -27 -8 -35 0 -8 8 -11 8 -11 -1z"/>
<path d="M2526 1338 c3 -5 10 -6 15 -3 13 9 11 12 -6 12 -8 0 -12 -4 -9 -9z"/>
<path d="M3015 1341 c-6 -11 13 -26 22 -17 4 3 1 6 -6 6 -7 0 -9 5 -6 10 3 6
4 10 1 10 -3 0 -7 -4 -11 -9z"/>
<path d="M2176 1325 c-9 -26 -7 -32 5 -12 6 10 9 21 6 23 -2 3 -7 -2 -11 -11z"/>
<path d="M2498 1318 c5 -5 16 -8 23 -6 8 3 3 7 -10 11 -17 4 -21 3 -13 -5z"/>
<path d="M2955 1313 c5 -15 4 -16 -6 -5 -17 16 -34 16 -20 -1 6 -8 9 -16 6
-19 -3 -2 1 -5 8 -5 6 0 20 -4 30 -8 10 -4 17 -3 17 5 0 6 -4 8 -10 5 -5 -3
-10 -2 -10 4 0 5 8 12 18 14 16 4 16 5 0 6 -10 0 -18 6 -18 11 0 6 -5 10 -11
10 -6 0 -8 -7 -4 -17z"/>
<path d="M3130 1320 c0 -6 7 -10 15 -10 8 0 15 2 15 4 0 2 -7 6 -15 10 -8 3
-15 1 -15 -4z"/>
<path d="M1840 1314 c0 -5 7 -17 14 -26 14 -19 26 -14 26 10 0 9 -3 12 -7 9
-3 -4 -12 -2 -20 4 -7 6 -13 8 -13 3z"/>
<path d="M3082 1300 c-21 -12 -29 -21 -21 -25 6 -4 14 -4 18 1 9 14 31 15 29
2 -2 -6 8 -14 22 -18 l25 -6 -27 -6 c-15 -3 -30 0 -32 6 -3 6 -4 2 -3 -9 3
-25 24 -48 37 -40 5 3 10 1 10 -5 0 -6 16 -26 35 -45 25 -23 32 -35 23 -39 -7
-3 -2 -3 12 0 33 9 87 47 72 52 -7 2 -10 8 -6 13 3 5 -3 9 -13 9 -10 0 -14 4
-8 8 12 9 18 33 8 30 -14 -3 -43 14 -38 22 3 4 -2 10 -10 14 -8 3 -15 0 -15
-7 0 -8 -4 -7 -9 3 -6 8 -8 17 -5 21 2 4 -7 9 -21 11 -17 4 -25 1 -25 -9 0 -8
-5 -11 -10 -8 -6 4 -8 11 -5 16 4 5 1 9 -5 9 -6 0 -8 5 -5 10 7 12 9 12 -33
-10z"/>
<path d="M2151 1294 c0 -11 3 -14 6 -6 3 7 2 16 -1 19 -3 4 -6 -2 -5 -13z"/>
<path d="M4550 1300 c0 -5 5 -10 11 -10 5 0 7 5 4 10 -3 6 -8 10 -11 10 -2 0
-4 -4 -4 -10z"/>
<path d="M1817 1289 c7 -7 15 -10 18 -7 3 3 -2 9 -12 12 -14 6 -15 5 -6 -5z"/>
<path d="M4516 1288 c3 -5 10 -6 15 -3 13 9 11 12 -6 12 -8 0 -12 -4 -9 -9z"/>
<path d="M3000 1281 c0 -10 19 -25 25 -20 1 2 -3 10 -11 17 -8 7 -14 8 -14 3z"/>
<path d="M1821 1255 c-1 -18 13 -29 65 -51 16 -7 24 20 13 37 -8 11 -9 11 -7
-3 2 -9 1 -17 -2 -18 -13 -4 -60 25 -63 39 -4 12 -5 11 -6 -4z"/>
<path d="M2611 1267 c2 -1 11 -8 20 -15 13 -10 18 -10 22 1 3 8 -4 14 -21 15
-14 1 -24 1 -21 -1z"/>
<path d="M2116 1225 c-9 -26 -7 -32 5 -12 6 10 9 21 6 23 -2 3 -7 -2 -11 -11z"/>
<path d="M1520 1220 c0 -6 7 -10 15 -10 8 0 15 2 15 4 0 2 -7 6 -15 10 -8 3
-15 1 -15 -4z"/>
<path d="M1716 1214 c-7 -18 15 -44 37 -44 5 0 7 -13 5 -29 -3 -20 0 -27 8
-24 6 2 10 12 7 23 -5 20 18 41 25 22 6 -19 39 -14 45 8 4 15 0 19 -17 18 -24
-2 -87 21 -97 35 -3 5 -9 1 -13 -9z"/>
<path d="M2850 1210 c0 -5 5 -10 11 -10 5 0 7 5 4 10 -3 6 -8 10 -11 10 -2 0
-4 -4 -4 -10z"/>
<path d="M3057 1189 c7 -7 15 -10 18 -7 3 3 -2 9 -12 12 -14 6 -15 5 -6 -5z"/>
<path d="M1870 1185 c0 -5 5 -17 10 -25 5 -8 10 -10 10 -5 0 6 -5 17 -10 25
-5 8 -10 11 -10 5z"/>
<path d="M3030 1159 c0 -5 5 -7 10 -4 6 3 10 8 10 11 0 2 -4 4 -10 4 -5 0 -10
-5 -10 -11z"/>
<path d="M1780 1153 c0 -6 9 -20 20 -33 11 -13 20 -20 20 -16 0 4 -9 19 -20
33 -11 14 -20 21 -20 16z"/>
<path d="M2191 1134 c0 -11 3 -14 6 -6 3 7 2 16 -1 19 -3 4 -6 -2 -5 -13z"/>
<path d="M1865 1120 c3 -5 11 -10 16 -10 6 0 7 5 4 10 -3 6 -11 10 -16 10 -6
0 -7 -4 -4 -10z"/>
<path d="M1878 1093 c7 -3 16 -2 19 1 4 3 -2 6 -13 5 -11 0 -14 -3 -6 -6z"/>
<path d="M2780 1070 c0 -5 5 -10 10 -10 6 0 10 5 10 10 0 6 -4 10 -10 10 -5 0
-10 -4 -10 -10z"/>
<path d="M4565 1070 c3 -5 8 -10 11 -10 2 0 4 5 4 10 0 6 -5 10 -11 10 -5 0
-7 -4 -4 -10z"/>
<path d="M1922 1050 c-27 -25 -26 -22 -2 -50 13 -15 20 -18 20 -9 0 11 2 11
10 -1 9 -13 10 -13 10 0 0 9 6 4 13 -10 8 -14 19 -24 25 -22 7 1 12 -4 12 -12
0 -7 11 -16 25 -18 13 -3 22 -2 20 3 -3 4 1 10 7 13 7 3 3 3 -8 1 -17 -4 -22
-1 -20 12 0 11 -5 17 -16 17 -12 -1 -18 5 -18 18 0 10 -4 16 -10 13 -6 -3 -7
1 -4 9 3 9 10 14 14 11 5 -3 12 0 16 6 4 8 9 7 15 -2 6 -10 9 -8 9 9 0 20 -3
21 -20 12 -11 -6 -20 -8 -20 -4 0 4 -10 -4 -22 -17 -14 -17 -19 -19 -15 -6 7
18 -1 47 -12 47 -4 0 -17 -9 -29 -20z m33 0 c3 -5 1 -10 -4 -10 -6 0 -11 5
-11 10 0 6 2 10 4 10 3 0 8 -4 11 -10z"/>
<path d="M2097 1053 c9 -3 10 -10 4 -22 -8 -14 -5 -17 17 -19 25 -2 25 -2 6
14 -16 13 -16 15 -1 10 21 -7 23 10 1 18 -19 7 -45 7 -27 -1z"/>
<path d="M2056 1034 c-9 -22 -8 -24 9 -24 8 0 15 6 15 14 0 22 -17 28 -24 10z"/>
<path d="M2150 1031 c0 -5 7 -14 15 -21 16 -14 18 -10 9 14 -6 17 -24 22 -24
7z"/>
<path d="M2216 1004 c-3 -9 -4 -19 -1 -22 3 -3 5 1 5 9 0 11 2 11 10 -1 5 -8
10 -10 10 -5 0 6 -4 16 -9 23 -6 11 -10 10 -15 -4z"/>
<path d="M2250 999 c0 -5 6 -7 13 -3 9 6 9 5 -1 -8 -10 -12 -10 -17 1 -27 11
-9 14 -5 15 19 0 20 -4 30 -14 30 -8 0 -14 -5 -14 -11z"/>
<path d="M2313 975 c-3 -9 -3 -18 -1 -21 3 -3 8 4 11 16 6 23 -1 27 -10 5z"/>
<path d="M2291 964 c0 -11 3 -14 6 -6 3 7 2 16 -1 19 -3 4 -6 -2 -5 -13z"/>
<path d="M1950 960 c0 -5 5 -10 10 -10 6 0 10 5 10 10 0 6 -4 10 -10 10 -5 0
-10 -4 -10 -10z"/>
<path d="M2223 948 c-2 -18 0 -20 7 -8 12 18 13 30 2 30 -4 0 -9 -10 -9 -22z"/>
<path d="M3956 955 c4 -8 11 -15 16 -15 6 0 5 6 -2 15 -7 8 -14 15 -16 15 -2
0 -1 -7 2 -15z"/>
<path d="M1564 931 c2 -17 6 -34 9 -38 4 -3 5 9 2 27 -2 18 -6 35 -9 38 -3 3
-4 -9 -2 -27z"/>
<path d="M2195 949 c-4 -6 -5 -12 -2 -15 2 -3 7 2 10 11 7 17 1 20 -8 4z"/>
<path d="M1870 939 c0 -5 -6 -7 -12 -3 -8 5 -8 1 2 -12 8 -10 15 -20 16 -22 1
-2 2 9 2 23 0 14 -2 25 -4 25 -2 0 -4 -5 -4 -11z"/>
<path d="M1890 921 c0 -12 4 -20 9 -17 5 4 12 0 14 -6 4 -10 6 -10 6 1 1 8 8
4 21 -10 10 -13 19 -20 20 -16 0 8 -24 34 -52 56 -16 12 -18 11 -18 -8z"/>
<path d="M2171 925 c0 -11 5 -33 12 -49 11 -25 14 -27 26 -13 11 13 10 20 -3
39 -11 15 -16 18 -17 8 -1 -8 -5 -4 -9 10 -7 20 -8 21 -9 5z m34 -34 c3 -5 1
-12 -5 -16 -5 -3 -10 1 -10 9 0 18 6 21 15 7z"/>
<path d="M2120 925 c0 -7 30 -13 34 -7 3 4 -4 9 -15 9 -10 1 -19 0 -19 -2z"/>
<path d="M2020 906 c0 -2 7 -6 15 -10 8 -3 15 -1 15 4 0 6 -7 10 -15 10 -8 0
-15 -2 -15 -4z"/>
<path d="M2070 885 c-7 -8 -16 -12 -21 -9 -11 6 -11 1 -3 -20 3 -9 10 -13 15
-10 5 3 9 1 9 -5 0 -5 -6 -11 -12 -13 -14 -5 -41 39 -32 53 3 5 -2 9 -10 9
-13 0 -14 -4 -4 -26 10 -21 9 -27 -3 -35 -8 -5 -18 -9 -24 -9 -5 1 -2 5 9 11
15 9 16 13 5 20 -19 12 -39 11 -39 -2 0 -5 6 -7 13 -3 6 4 4 -2 -7 -14 -10
-12 -27 -24 -37 -27 -11 -4 -19 -10 -19 -15 0 -5 7 -7 15 -4 9 4 15 1 15 -7 0
-7 11 -2 26 12 25 22 26 23 20 3 -4 -15 -2 -21 9 -21 8 0 15 9 15 19 0 29 15
21 33 -17 9 -19 21 -35 26 -35 12 0 35 29 28 36 -3 4 1 13 9 21 9 9 12 24 9
37 -5 17 -4 18 4 6 6 -8 11 -10 11 -4 0 7 9 14 20 17 21 5 28 37 9 37 -6 0 -9
-7 -5 -15 3 -8 1 -15 -4 -15 -5 0 -12 9 -15 20 -8 24 -47 27 -65 5z m50 -11
c0 -14 -3 -15 -17 -3 -10 7 -20 15 -22 16 -2 2 5 3 17 3 14 0 22 -6 22 -16z"/>
<path d="M1556 865 c-3 -9 -6 -22 -5 -28 0 -7 5 -1 10 12 5 13 8 26 5 28 -2 2
-6 -3 -10 -12z"/>
<path d="M1843 863 c9 -2 25 -2 35 0 9 3 1 5 -18 5 -19 0 -27 -2 -17 -5z"/>
<path d="M1491 844 c0 -11 3 -14 6 -6 3 7 2 16 -1 19 -3 4 -6 -2 -5 -13z"/>
<path d="M1780 840 c0 -5 10 -10 23 -10 18 0 19 2 7 10 -19 13 -30 13 -30 0z"/>
<path d="M1787 813 c-10 -9 13 -33 32 -32 10 0 11 2 4 6 -7 2 -13 11 -13 19 0
15 -12 19 -23 7z"/>
<path d="M2262 795 c0 -16 2 -22 5 -12 2 9 2 23 0 30 -3 6 -5 -1 -5 -18z"/>
<path d="M1525 780 c-16 -7 -17 -9 -3 -9 9 -1 20 4 23 9 7 11 7 11 -20 0z"/>
<path d="M1915 750 c-3 -5 -1 -10 4 -10 6 0 11 5 11 10 0 6 -2 10 -4 10 -3 0
-8 -4 -11 -10z"/>
<path d="M1891 713 c0 -13 -5 -23 -11 -23 -5 0 -10 -4 -10 -10 0 -5 16 -9 35
-8 19 1 35 5 35 10 0 5 -4 6 -10 3 -5 -3 -10 0 -10 7 0 10 -2 10 -9 -1 -7 -11
-10 -7 -14 15 -3 21 -4 23 -6 7z"/>
<path d="M2063 649 c-1 -12 3 -19 10 -16 17 5 21 37 5 37 -8 0 -14 -9 -15 -21z"/>
<path d="M1690 616 c0 -15 4 -25 9 -22 10 7 9 31 -2 42 -4 4 -7 -5 -7 -20z"/>
<path d="M2096 527 c3 -10 9 -15 12 -12 3 3 0 11 -7 18 -10 9 -11 8 -5 -6z"/>
<path d="M4115 510 c-3 -5 -1 -10 4 -10 6 0 11 5 11 10 0 6 -2 10 -4 10 -3 0
-8 -4 -11 -10z"/>
<path d="M1681 488 c1 -7 5 -24 9 -38 7 -21 8 -20 7 12 -1 21 -5 38 -9 38 -5
0 -8 -6 -7 -12z"/>
<path d="M1873 442 c0 -12 5 -22 9 -22 11 0 10 12 -2 30 -7 12 -9 10 -7 -8z"/>
<path d="M1680 409 c0 -5 5 -7 10 -4 6 3 10 8 10 11 0 2 -4 4 -10 4 -5 0 -10
-5 -10 -11z"/>
<path d="M2070 376 c0 -2 7 -7 16 -10 8 -3 12 -2 9 4 -6 10 -25 14 -25 6z"/>
<path d="M2090 262 c0 -5 7 -13 16 -16 10 -4 14 -1 12 6 -5 15 -28 23 -28 10z"/>
<path d="M1990 230 c0 -5 5 -10 10 -10 6 0 10 5 10 10 0 6 -4 10 -10 10 -5 0
-10 -4 -10 -10z"/>
<path d="M1787 126 c-3 -8 -2 -18 3 -21 13 -8 24 15 12 27 -6 6 -11 4 -15 -6z"/>
<path d="M1878 78 c-10 -12 -18 -27 -18 -33 0 -5 6 -1 12 10 11 19 11 19 19 0
5 -15 7 -12 6 13 0 17 0 32 -1 32 -1 0 -9 -10 -18 -22z"/>
<path d="M1760 20 c0 -6 -5 -8 -12 -4 -7 4 -8 3 -4 -4 9 -14 36 -16 36 -3 0 6
-4 13 -10 16 -5 3 -10 1 -10 -5z"/>
</g>
</svg>
